<!-- <?xml version="1.0" standalone="no"?>
<!DOCTYPE svg PUBLIC "-//W3C//DTD SVG 20010904//EN" "http://www.w3.org/TR/2001/REC-SVG-20010904/DTD/svg10.dtd"> -->
<!-- <svg version="1.0" xmlns="http://www.w3.org/2000/svg" width="214.000000pt" height="214.000000pt" viewBox="0 0 214.000000 214.000000" preserveAspectRatio="xMidYMid meet"> -->
<svg version="1.0" xmlns="http://www.w3.org/2000/svg"  class="h-12 w-auto text-white lg:h-16 lg:text-[#FF2D20]" viewBox="0 0 62 65" fill="none">

<g transform="translate(0.000000,214.000000) scale(0.100000,-0.100000)" fill="#000000" stroke="none">
    <path d="M903 1822 c-89 -48 -159 -90 -155 -94 8 -8 322 -188 328 -188 13 0 334 189 327 193 -39 22 -332 177 -334 177 -2 -1 -77 -40 -166 -88z"/>
    <path d="M481 1595 c-144 -77 -170 -95 -155 -103 11 -5 92 -48 181 -96 l162 -86 148 83 c81 46 156 88 166 93 15 8 -11 27 -149 105 -92 52 -170 95 -173 96 -3 1 -84 -40 -180 -92z"/>
    <path d="M1325 1599 c-88 -50 -163 -93 -167 -97 -4 -4 66 -49 155 -99 l161 -92 71 38 c38 21 119 64 178 96 l109 57 -39 22 c-21 13 -99 54 -173 94 l-135 71 -160 -90z"/>
    <path d="M230 1275 l0 -175 63 -31 c34 -18 76 -42 92 -54 17 -12 75 -45 129 -74 l99 -51 -6 97 c-4 54 -7 137 -7 185 l0 86 -180 96 c-99 53 -182 96 -185 96 -3 0 -5 -79 -5 -175z"/>
    <path d="M903 1362 c-84 -48 -153 -89 -153 -92 0 -3 72 -42 160 -88 l160 -83 160 83 c88 46 160 86 160 89 0 9 -307 179 -322 178 -7 0 -82 -40 -165 -87z"/>
    <path d="M1718 1353 l-178 -95 0 -87 c0 -47 -3 -130 -7 -183 l-6 -97 112 59 c61 33 124 68 139 78 15 11 51 31 80 46 l52 26 0 175 c0 96 -3 175 -7 174 -5 -1 -88 -44 -185 -96z"/>
    <path d="M672 1039 l3 -182 175 -94 c96 -51 178 -93 183 -93 4 0 7 80 7 178 l0 178 -52 26 c-29 15 -113 59 -186 98 l-132 71 2 -182z"/>
    <path d="M1283 1121 l-183 -96 0 -179 c0 -166 1 -178 18 -171 24 9 335 175 345 184 4 4 6 86 5 183 l-3 175 -182 -96z"/>
    <path d="M230 842 l0 -179 98 -51 c53 -29 139 -74 190 -102 l92 -51 0 185 0 184 -179 96 c-99 53 -184 96 -190 96 -8 0 -11 -56 -11 -178z"/>
    <path d="M1710 927 l-175 -93 -3 -188 -2 -188 77 43 c83 46 217 119 271 146 l32 17 0 178 c0 136 -3 178 -12 178 -7 0 -92 -42 -188 -93z"/>
    <path d="M1284 701 l-182 -96 -6 -65 c-7 -74 -8 -310 -2 -310 3 0 90 45 194 100 l190 101 -5 182 c-3 100 -6 183 -7 183 0 1 -83 -42 -182 -95z"/>
    <path d="M670 678 c0 -62 -3 -142 -6 -178 l-6 -65 187 -100 c103 -55 192 -102 196 -103 10 -4 11 249 1 322 l-7 48 -175 94 c-96 52 -178 94 -182 94 -5 0 -8 -51 -8 -112z"/>
</g>
</svg>
