<?xml version="1.0" standalone="no"?>
<!DOCTYPE svg PUBLIC "-//W3C//DTD SVG 20010904//EN"
 "http://www.w3.org/TR/2001/REC-SVG-20010904/DTD/svg10.dtd">
<svg version="1.0" xmlns="http://www.w3.org/2000/svg"
 width="600.000000pt" height="192.000000pt" viewBox="0 0 600.000000 192.000000"
 preserveAspectRatio="xMidYMid meet">

    <g transform="translate(0.000000,192.000000) scale(0.100000,-0.100000)"
    fill="#000000" stroke="none">
    <path d="M4466 1809 c-30 -35 -32 -49 -11 -88 20 -40 66 -57 105 -41 62 26 74
    100 23 140 -39 31 -86 26 -117 -11z"/>
    <path d="M2040 1615 c0 -23 4 -25 45 -25 l45 0 0 -85 0 -85 35 0 35 0 0 85 0
    85 45 0 c41 0 45 2 45 25 l0 25 -125 0 -125 0 0 -25z"/>
    <path d="M2340 1530 l0 -110 30 0 c28 0 30 2 30 40 l0 40 75 0 75 0 0 -40 c0
    -38 2 -40 30 -40 l30 0 0 110 0 110 -30 0 c-28 0 -30 -2 -30 -40 l0 -40 -75 0
    -75 0 0 40 c0 38 -2 40 -30 40 l-30 0 0 -110z"/>
    <path d="M2670 1530 l0 -110 125 0 125 0 0 25 c0 25 -1 25 -90 25 -83 0 -90 1
    -90 20 0 18 7 20 85 20 78 0 85 2 85 20 0 18 -7 20 -85 20 -78 0 -85 2 -85 20
    0 19 7 20 90 20 89 0 90 0 90 25 l0 25 -125 0 -125 0 0 -110z"/>
    <path d="M4440 1627 c-14 -7 -55 -29 -92 -51 -58 -34 -71 -48 -112 -118 -55
    -95 -63 -120 -42 -137 26 -21 42 -7 90 81 29 55 56 89 76 101 17 11 33 17 35
    15 7 -8 -84 -440 -97 -456 -8 -9 -42 -49 -77 -89 -50 -57 -62 -77 -59 -100 2
    -23 8 -29 33 -31 28 -3 39 7 122 104 93 108 111 145 114 232 1 67 10 66 83 -7
    l68 -69 2 -131 c1 -105 4 -134 16 -141 14 -9 58 -5 70 7 3 2 6 74 8 159 l3
    155 -77 79 -78 80 12 61 c6 34 14 64 18 68 3 3 14 -5 23 -19 38 -59 67 -80
    126 -95 91 -23 123 -20 131 11 8 32 -1 39 -84 58 -59 13 -102 38 -102 57 0 5
    -16 42 -36 84 -47 99 -99 126 -174 92z"/>
    <path d="M1275 1624 c-78 -11 -151 -40 -185 -74 -54 -54 -60 -89 -60 -337 0
    -207 1 -221 23 -263 30 -59 79 -96 156 -116 94 -24 617 -17 676 9 86 38 115
    87 123 204 l5 83 -122 0 -121 0 0 -26 c0 -73 -44 -88 -251 -88 -238 1 -257 17
    -258 207 -1 115 13 158 61 187 30 18 50 20 209 20 161 0 179 -2 202 -20 13
    -11 28 -31 31 -45 6 -25 7 -25 121 -25 l115 0 0 68 c-1 110 -37 167 -130 202
    -25 9 -112 14 -300 16 -146 1 -278 0 -295 -2z"/>
    <path d="M2314 1341 c-77 -8 -113 -25 -141 -68 -15 -23 -18 -51 -18 -183 0
    -169 6 -190 61 -226 56 -37 482 -37 539 0 54 36 60 57 60 227 0 143 -2 160
    -21 186 -38 53 -75 62 -250 67 -87 3 -191 1 -230 -3z m323 -145 c26 -23 28
    -29 28 -104 0 -71 -3 -83 -24 -106 -24 -25 -27 -26 -155 -26 -168 1 -186 13
    -186 130 0 116 18 129 182 130 120 0 128 -1 155 -24z"/>
    <path d="M2922 1136 c3 -189 5 -207 24 -233 40 -54 61 -58 279 -58 184 0 203
    2 235 21 59 34 65 56 68 277 l4 197 -76 0 -76 0 0 -164 c0 -205 -1 -206 -112
    -214 -92 -6 -162 4 -183 24 -12 13 -15 47 -15 185 l0 169 -76 0 -75 0 3 -204z"/>
    <path d="M3640 1095 l0 -245 70 0 70 0 0 60 0 60 140 0 c157 0 160 -1 160 -79
    0 -38 2 -41 29 -41 24 0 28 3 24 23 -3 16 8 39 38 77 l42 53 -28 23 c-27 21
    -27 22 -6 29 33 10 45 44 44 124 -3 144 -39 160 -360 161 l-223 0 0 -245z
    m418 109 c25 -17 31 -74 9 -92 -7 -6 -72 -12 -147 -13 l-135 -2 -3 48 c-5 77
    -8 75 130 75 96 0 129 -4 146 -16z"/>
    <path d="M4854 1314 c-21 -29 -41 -32 -122 -20 l-54 8 7 -68 c3 -38 8 -140 11
    -226 l5 -158 259 0 260 0 0 55 0 55 -192 2 -193 3 -3 38 -3 37 180 0 181 0 0
    50 0 50 -180 0 -180 0 0 40 0 40 195 0 195 0 0 60 0 60 -173 0 -173 0 -20 -26z"/>
    <path d="M5320 1096 l0 -246 75 0 75 0 0 60 0 60 133 0 c90 0 137 -4 145 -12
    7 -7 12 -34 12 -60 l0 -48 75 0 75 0 0 66 c0 63 -2 69 -34 98 -32 31 -33 33
    -12 42 31 13 46 52 46 117 0 75 -20 121 -62 144 -28 15 -67 18 -280 21 l-248
    4 0 -246z m430 104 c14 -21 12 -74 -2 -88 -8 -8 -55 -12 -145 -12 l-133 0 0
    61 0 61 135 -4 c107 -2 138 -6 145 -18z"/>
    <path d="M3109 581 c-91 -28 -104 -57 -104 -243 0 -164 6 -182 76 -223 31 -18
    52 -20 229 -20 296 0 320 15 320 195 l0 90 -165 0 -165 0 0 -50 0 -50 85 0
    c75 0 85 -2 85 -18 0 -36 -20 -42 -149 -42 -70 0 -132 4 -139 9 -31 19 -39
    177 -12 222 7 10 38 15 125 17 138 4 163 0 175 -33 9 -23 14 -25 80 -25 l70 0
    0 45 c0 26 -7 60 -16 76 -26 52 -61 59 -276 58 -106 0 -205 -4 -219 -8z"/>
    <path d="M3740 398 c0 -223 7 -249 75 -283 36 -18 60 -20 230 -19 298 0 298 1
    303 297 l4 197 -76 0 -75 0 -3 -171 c-4 -210 5 -199 -158 -199 -157 0 -150
    -10 -150 203 l0 167 -75 0 -75 0 0 -192z"/>
    <path d="M4427 567 c10 -12 71 -84 136 -159 l117 -136 0 -86 0 -86 75 0 75 0
    0 89 0 88 136 157 135 156 -93 0 -93 0 -78 -95 c-43 -52 -81 -95 -85 -94 -4 0
    -42 43 -85 95 l-78 94 -90 0 -90 0 18 -23z"/>
    </g>
</svg>
